D:\school\WTK\thesis\model\3dpredictsim\Results\Batchsim_tmt_linear\Pog_s1_tmt_bCst_d00_k500_ig24_pas_GRF.mot
nRows=15
nColumns=19

name D:\school\WTK\thesis\model\3dpredictsim\Results\Batchsim_tmt_linear\Pog_s1_tmt_bCst_d00_k500_ig24_pas_GRF.mot
datacolumns 19
datarows 15
range 0.5592802588 0.7158787312
endheader
time 	ground_force_vx	ground_force_vy	ground_force_vz	ground_force_px	ground_force_py	ground_force_pz	1_ground_force_vx	1_ground_force_vy	1_ground_force_vz	1_ground_force_px	1_ground_force_py	1_ground_force_pz	ground_torque_x	ground_torque_y	ground_torque_z	1_ground_torque_x	1_ground_torque_y	1_ground_torque_z
        0.5592802588	       90.0574409752	      426.4726421521	        6.3953419087	        0.3716174889	        0.0000000000	        0.0307833203	      -88.9003646825	       90.8288752494	      -52.1884067004	        0.8659985379	        0.0000000000	       -0.0361332310	        0.0000000000	        0.0000000000	        0.0000000000	        0.0000000000	        0.0000000000	        0.0000000000	
        0.5704658639	       69.7671626883	      340.2528113362	       13.3283211481	        0.3768639736	        0.0000000000	        0.0290158414	      -89.5913748934	      194.6897611491	      -87.7865848402	        0.8715085731	        0.0000000000	       -0.0339752028	        0.0000000000	        0.0000000000	        0.0000000000	        0.0000000000	        0.0000000000	        0.0000000000	
        0.5816514691	       37.4147615114	      228.7686705763	       10.0066298481	        0.3876647997	        0.0000000000	        0.0241124668	      -54.4889229657	      370.2615657962	      -20.8149305206	        0.8756392940	        0.0000000000	       -0.0320187523	        0.0000000000	        0.0000000000	        0.0000000000	        0.0000000000	        0.0000000000	        0.0000000000	
        0.5928370743	       15.2055158910	      145.1393291978	        9.2850144517	        0.4049708190	        0.0000000000	        0.0149972100	      -59.7524959792	      575.9873454987	        3.8032594927	        0.8824544748	        0.0000000000	       -0.0333786535	        0.0000000000	        0.0000000000	        0.0000000000	        0.0000000000	        0.0000000000	        0.0000000000	
        0.6040226795	        1.8196556218	      117.5120022983	       10.8487295175	        0.4053010340	        0.0000000000	        0.0147606311	      -96.7949536161	      770.6373506787	       11.2494384656	        0.8903355136	        0.0000000000	       -0.0357229543	        0.0000000000	        0.0000000000	        0.0000000000	        0.0000000000	        0.0000000000	        0.0000000000	
        0.6152082846	       -1.6786629566	       77.9119937623	        9.6703414736	        0.4058138264	        0.0000000000	        0.0147861624	     -117.9777854622	      871.8731405788	       13.9948101401	        0.8954937116	        0.0000000000	       -0.0371310194	        0.0000000000	        0.0000000000	        0.0000000000	        0.0000000000	        0.0000000000	        0.0000000000	
        0.6263938898	       -7.6804058142	       32.6992355977	        5.8284322623	        0.4056012025	        0.0000000000	        0.0147588995	     -120.2111681694	      894.1032626052	       14.5593838767	        0.8990345590	        0.0000000000	       -0.0379290584	        0.0000000000	        0.0000000000	        0.0000000000	        0.0000000000	        0.0000000000	        0.0000000000	
        0.6375794950	        0.0821086203	       -0.0823231576	       -0.0022832702	        0.0000000000	        0.0000000000	        0.0000000000	     -112.1565022562	      875.9921322011	       14.5533220352	        0.9020724297	        0.0000000000	       -0.0383593522	        0.0000000000	        0.0000000000	        0.0000000000	        0.0000000000	        0.0000000000	        0.0000000000	
        0.6487651002	        0.0000446161	       -0.0000366798	        0.0000025502	        0.0000000000	        0.0000000000	        0.0000000000	      -99.6309617809	      840.2620697425	       14.9989503908	        0.9052772932	        0.0000000000	       -0.0385352602	        0.0000000000	        0.0000000000	        0.0000000000	        0.0000000000	        0.0000000000	        0.0000000000	
        0.6599507053	        0.0000204060	       -0.0000146468	        0.0000015107	        0.0000000000	        0.0000000000	        0.0000000000	      -86.1724840845	      795.4569224729	       14.9948755527	        0.9085782873	        0.0000000000	       -0.0386007266	        0.0000000000	        0.0000000000	        0.0000000000	        0.0000000000	        0.0000000000	        0.0000000000	
        0.6711363105	        0.0002321118	       -0.0001492427	        0.0000192042	        0.0000000000	        0.0000000000	        0.0000000000	      -74.7095680293	      754.8569800764	       15.0900039703	        0.9124897992	        0.0000000000	       -0.0385581115	        0.0000000000	        0.0000000000	        0.0000000000	        0.0000000000	        0.0000000000	        0.0000000000	
        0.6823219157	        0.0046261750	       -0.0027252806	        0.0004055238	        0.0000000000	        0.0000000000	        0.0000000000	      -64.2723195689	      719.4197607308	       15.3506349086	        0.9167630069	        0.0000000000	       -0.0384351173	        0.0000000000	        0.0000000000	        0.0000000000	        0.0000000000	        0.0000000000	        0.0000000000	
        0.6935075209	       -0.0211008742	        0.0115589776	       -0.0019288705	        0.0000000000	        0.0000000000	        0.0000000000	      -54.1325887013	      686.7158969504	       15.9464228854	        0.9209488194	        0.0000000000	       -0.0383360165	        0.0000000000	        0.0000000000	        0.0000000000	        0.0000000000	        0.0000000000	        0.0000000000	
        0.7046931260	       -0.0147706160	        0.0076072944	       -0.0014030255	        0.0000000000	        0.0000000000	        0.0000000000	      -44.7483549636	      657.5480977724	       16.8184371998	        0.9251109647	        0.0000000000	       -0.0382899758	        0.0000000000	        0.0000000000	        0.0000000000	        0.0000000000	        0.0000000000	        0.0000000000	
        0.7158787312	       -0.0101520577	        0.0049607098	       -0.0010014728	        0.0000000000	        0.0000000000	        0.0000000000	      -37.0766169735	      633.1649011007	       17.7089013575	        0.9294268648	        0.0000000000	       -0.0382839396	        0.0000000000	        0.0000000000	        0.0000000000	        0.0000000000	        0.0000000000	        0.0000000000	
